<?xml version="1.0" encoding="UTF-8"?>
<svg version="1.1" xmlns="http://www.w3.org/2000/svg" width="160" height="41">
<path d="M0 0 C11.25 1.125 11.25 1.125 15.1328125 1.97265625 C15.87934082 2.13258057 16.62586914 2.29250488 17.39501953 2.45727539 C18.29591309 2.65699951 19.19680664 2.85672363 20.125 3.0625 C23.05375 3.701875 25.9825 4.34125 29 5 C28.67 16.88 28.34 28.76 28 41 C21.20771728 40.32077173 14.95180449 39.48524049 8.375 37.9375 C4.229375 36.9784375 4.229375 36.9784375 0 36 C0 24.12 0 12.24 0 0 Z " fill="#000000" transform="translate(0,0)"/>
<path d="M0 0 C0 11.88 0 23.76 0 36 C-12 39 -12 39 -20 40 C-20 28.12 -20 16.24 -20 4 C-16.15813575 2.71937858 -12.78003756 1.64621431 -8.875 0.875 C-7.63363281 0.62363281 -7.63363281 0.62363281 -6.3671875 0.3671875 C-4 0 -4 0 0 0 Z M-10 10 C-10 11.98 -10 13.96 -10 16 C-9.67 16 -9.34 16 -9 16 C-9 14.02 -9 12.04 -9 10 C-9.33 10 -9.66 10 -10 10 Z " fill="#000000" transform="translate(106,1)"/>
<path d="M0 0 C0 12.21 0 24.42 0 37 C-4.455 37.495 -4.455 37.495 -9 38 C-10.66933058 38.6599679 -12.3364521 39.32558869 -14 40 C-15.98 40 -17.96 40 -20 40 C-20 28.12 -20 16.24 -20 4 C-17.07125 3.34 -14.1425 2.68 -11.125 2 C-10.20348145 1.79117188 -9.28196289 1.58234375 -8.33251953 1.3671875 C-7.60661621 1.20476563 -6.88071289 1.04234375 -6.1328125 0.875 C-5.38918457 0.70742187 -4.64555664 0.53984375 -3.87939453 0.3671875 C-2 0 -2 0 0 0 Z " fill="#000000" transform="translate(128,0)"/>
<path d="M0 0 C2.64 0.33 5.28 0.66 8 1 C8.66 3.31 9.32 5.62 10 8 C10.66 6.35 11.32 4.7 12 3 C14.97 3.33 17.94 3.66 21 4 C20.80664062 4.64066406 20.61328125 5.28132812 20.4140625 5.94140625 C20.15367188 6.80636719 19.89328125 7.67132813 19.625 8.5625 C19.24214844 9.83287109 19.24214844 9.83287109 18.8515625 11.12890625 C18.57054688 12.07636719 18.28953125 13.02382812 18 14 C17.608125 15.10859375 17.21625 16.2171875 16.8125 17.359375 C15.85325259 21.65754127 16.36583147 24.42225353 17.375 28.6875 C18.2913917 32.65189019 19 35.92130181 19 40 C12.30495828 39.20567302 6.44351484 38.14783828 0 36 C0 24.12 0 12.24 0 0 Z " fill="#000000" transform="translate(64,1)"/>
<path d="M0 0 C10.125 1.125 10.125 1.125 14.5625 2.0625 C16.026875 2.371875 17.49125 2.68125 19 3 C19 8.28 19 13.56 19 19 C15.7 18.34 12.4 17.68 9 17 C9 18.98 9 20.96 9 23 C12.3 23.33 15.6 23.66 19 24 C19 29.28 19 34.56 19 40 C16.20763552 39.52464031 13.41615009 39.0448933 10.625 38.5625 C9.8309375 38.42779297 9.036875 38.29308594 8.21875 38.15429688 C2.2265625 37.11328125 2.2265625 37.11328125 0 36 C0 24.12 0 12.24 0 0 Z " fill="#000000" transform="translate(43,1)"/>
<path d="M0 0 C0 4.95 0 9.9 0 15 C-3.3 15.33 -6.6 15.66 -10 16 C-10 17.98 -10 19.96 -10 22 C-6.7 21.34 -3.4 20.68 0 20 C0 25.28 0 30.56 0 36 C-13.375 39 -13.375 39 -19 39 C-19 27.12 -19 15.24 -19 3 C-6 0 -6 0 0 0 Z " fill="#000000" transform="translate(160,1)"/>
<path d="M0 0 C0 11.88 0 23.76 0 36 C-4.455 36.495 -4.455 36.495 -9 37 C-9 25.12 -9 13.24 -9 1 C-5 0 -5 0 0 0 Z " fill="#000000" transform="translate(139,2)"/>
<path d="M0 0 C2.64 0.33 5.28 0.66 8 1 C8 13.21 8 25.42 8 38 C5.36 37.34 2.72 36.68 0 36 C0 24.12 0 12.24 0 0 Z " fill="#000000" transform="translate(32,2)"/>
</svg>
